<?xml version="1.0" standalone="no"?>
<!DOCTYPE svg PUBLIC "-//W3C//DTD SVG 20010904//EN"
 "http://www.w3.org/TR/2001/REC-SVG-20010904/DTD/svg10.dtd">
<svg version="1.0" xmlns="http://www.w3.org/2000/svg"
 width="1032.000000pt" height="509.000000pt" viewBox="0 0 1032.000000 509.000000"
 preserveAspectRatio="xMidYMid meet">

<g transform="translate(0.000000,509.000000) scale(0.100000,-0.100000)"
fill="#000000" stroke="none">
<path d="M4926 4939 c-111 -15 -184 -37 -291 -89 -187 -90 -342 -243 -430
-425 -66 -136 -86 -217 -94 -380 l-6 -140 -130 -7 c-153 -8 -251 -31 -371 -87
-113 -53 -193 -111 -282 -206 -88 -91 -139 -168 -183 -273 -70 -166 -69 -156
-69 -867 0 -673 7 -842 38 -897 l19 -33 1306 0 c718 0 1302 2 1297 5 -5 3
-105 5 -224 5 -118 0 -213 2 -210 5 3 3 105 5 227 5 l222 0 12 45 c6 25 12 97
12 160 1 63 5 121 9 128 6 9 35 12 108 10 l99 -3 3 -85 c2 -68 -7 -189 -21
-264 -1 -6 20 -10 48 -11 49 0 50 0 63 40 8 22 18 100 22 172 5 73 12 137 15
143 3 6 52 10 111 10 122 0 252 28 381 83 295 126 512 426 543 753 13 139 13
1238 0 1364 -18 167 -58 282 -148 425 -52 82 -182 214 -265 269 -116 76 -259
127 -411 146 -99 12 -1302 11 -1400 -1z m1514 -158 c106 -32 237 -104 306
-168 46 -43 54 -53 34 -48 -192 47 -156 46 -1043 43 -926 -4 -864 1 -1007 -74
-132 -69 -230 -182 -270 -312 -16 -50 -20 -93 -20 -193 l0 -130 -97 3 -98 3 1
115 c1 125 16 202 61 304 85 193 245 349 435 425 150 60 146 60 918 57 701 -2
705 -2 780 -25z m-151 -655 c15 -8 37 -28 47 -43 18 -27 19 -56 19 -668 l0
-640 -22 -31 c-31 -43 -67 -56 -149 -52 l-69 3 -6 215 c-6 194 -9 224 -33 305
-82 275 -254 481 -497 594 -148 69 -216 82 -456 88 l-213 5 0 72 c0 82 12 112
59 143 l34 23 629 0 c530 0 633 -2 657 -14z m286 -117 c39 -37 72 -80 87 -112
l23 -52 0 -595 0 -595 -26 -56 c-48 -101 -148 -182 -274 -222 -70 -22 -72 -22
-900 -22 -867 0 -891 1 -985 43 -75 35 -148 92 -182 144 -64 96 -71 130 -76
356 l-4 202 101 0 101 0 0 -35 c0 -62 30 -188 61 -251 52 -111 157 -185 324
-230 65 -18 117 -19 770 -19 l700 0 42 23 c54 28 104 78 129 128 18 37 19 69
22 697 2 454 6 657 13 657 6 0 39 -27 74 -61z m-935 -591 c124 -35 209 -91
262 -170 65 -98 71 -130 76 -355 l4 -203 -100 0 -99 0 -7 78 c-8 97 -46 213
-90 273 -66 89 -195 155 -355 179 -41 7 -318 10 -741 8 l-675 -3 -47 -27 c-62
-37 -105 -91 -125 -158 -14 -49 -15 -121 -8 -672 4 -339 8 -625 8 -634 3 -34
-30 -25 -83 22 -61 56 -90 99 -114 170 -15 46 -16 108 -14 630 l3 579 28 57
c61 125 198 216 354 237 37 5 428 8 868 7 689 -2 808 -5 855 -18z m-1527 -525
c5 -231 20 -315 82 -449 95 -208 281 -390 480 -469 149 -59 195 -67 425 -74
l215 -6 3 -77 c3 -89 -10 -124 -60 -160 l-33 -23 -613 -3 c-414 -2 -626 1
-653 8 -28 8 -48 22 -70 52 l-30 42 3 635 c3 576 5 639 20 667 24 45 70 64
154 64 l72 0 5 -207z m1154 174 c30 -28 38 -43 44 -88 9 -66 11 -251 3 -273
-5 -14 -29 -16 -158 -16 -132 0 -155 3 -183 20 -56 34 -63 61 -63 235 l0 155
160 0 160 0 37 -33z m-2013 -1517 c-7 -7 -94 -7 -89 0 2 3 24 6 49 6 25 0 43
-3 40 -6z m670 0 c2 -3 -143 -5 -324 -5 -180 0 -327 2 -325 5 4 6 642 6 649 0z
m110 -1 c3 -3 -14 -5 -39 -4 -24 0 -46 3 -49 6 -3 3 14 5 39 4 24 0 46 -3 49
-6z m121 1 c-5 -7 -92 -7 -99 0 -3 3 19 5 49 5 29 0 52 -2 50 -5z m109 0 c-7
-7 -94 -7 -89 0 2 3 24 6 49 6 25 0 43 -3 40 -6z m670 0 c2 -3 -143 -5 -324
-5 -180 0 -327 2 -325 5 4 6 642 6 649 0z m110 -1 c3 -3 -14 -5 -39 -4 -24 0
-46 3 -49 6 -3 3 14 5 39 4 24 0 46 -3 49 -6z m121 1 c-5 -7 -92 -7 -99 0 -3
3 19 5 49 5 29 0 52 -2 50 -5z m109 0 c-7 -7 -94 -7 -89 0 2 3 24 6 49 6 25 0
43 -3 40 -6z m780 -1 c3 -2 -15 -5 -39 -5 -24 0 -42 3 -40 6 5 8 72 7 79 -1z"/>
<path d="M180 496 c0 -68 3 -138 6 -155 6 -29 9 -31 49 -31 l43 0 6 63 c4 34
7 85 9 112 l2 50 70 3 c103 4 109 -2 113 -127 l4 -101 43 0 c53 0 55 4 55 126
0 169 -20 184 -245 184 l-155 0 0 -124z"/>
<path d="M750 581 c0 -36 3 -40 28 -43 24 -3 28 -8 34 -53 3 -27 7 -78 7 -112
l1 -63 44 0 44 0 6 63 c4 34 7 85 9 112 2 46 4 50 30 53 24 3 27 7 27 43 l0
39 -115 0 -115 0 0 -39z"/>
<path d="M1183 596 c-27 -23 -28 -28 -31 -131 -2 -58 -1 -117 2 -131 6 -23 11
-25 49 -22 l42 3 7 98 c4 55 12 105 19 113 9 11 39 14 125 14 l114 0 0 40 0
40 -149 0 c-144 0 -151 -1 -178 -24z"/>
<path d="M1720 581 c0 -36 3 -40 28 -43 25 -3 27 -7 29 -53 2 -27 5 -78 9
-112 l6 -63 42 0 43 0 9 113 9 112 28 3 c24 3 27 7 27 43 l0 39 -115 0 -115 0
0 -39z"/>
<path d="M2090 580 l0 -39 73 -3 72 -3 5 -110 5 -110 39 -3 c24 -2 42 2 47 10
5 7 9 52 9 100 0 119 0 118 76 118 l64 0 0 40 0 40 -195 0 -195 0 0 -40z"/>
<path d="M2681 478 c-28 -79 -51 -149 -51 -155 0 -10 40 -13 165 -13 123 0
165 3 165 12 0 7 -21 77 -47 155 l-47 143 -67 0 -66 0 -52 -142z m148 -53 c41
-109 42 -105 -27 -105 -34 0 -63 4 -66 9 -3 5 5 35 18 67 13 33 26 67 29 77
10 27 23 13 46 -48z"/>
<path d="M3190 465 l0 -155 44 0 c25 0 47 4 50 8 3 5 8 75 12 155 l7 147 -56
0 -57 0 0 -155z"/>
<path d="M4020 503 c0 -65 3 -135 6 -155 6 -37 8 -38 50 -38 l43 0 3 52 c2 28
8 53 13 55 6 2 24 -20 41 -49 l30 -53 65 -3 64 -3 34 56 c36 59 51 69 51 31 0
-13 3 -38 6 -55 6 -30 9 -32 48 -29 l41 3 6 60 c4 33 7 102 8 153 l1 93 -62
-3 -63 -3 -60 -117 c-33 -65 -65 -118 -72 -118 -6 0 -38 53 -71 118 l-59 117
-62 3 -61 3 0 -118z"/>
<path d="M4808 487 c-25 -72 -49 -142 -53 -154 l-6 -23 171 0 c134 0 171 3
168 13 -3 6 -13 37 -22 67 -10 30 -31 94 -48 143 l-31 87 -66 0 -66 0 -47
-133z m151 -76 c30 -92 30 -91 -39 -91 -52 0 -60 2 -60 19 0 30 60 155 69 145
5 -5 18 -38 30 -73z"/>
<path d="M5310 518 c0 -57 3 -127 6 -155 l7 -53 147 0 c221 0 240 13 240 166
0 81 -1 87 -29 115 l-29 29 -171 0 -171 0 0 -102z m284 6 c19 -19 22 -104 4
-122 -7 -7 -44 -12 -95 -12 l-83 0 0 68 c0 38 3 72 7 75 3 4 39 7 79 7 53 0
77 -4 88 -16z"/>
<path d="M5900 481 c0 -77 3 -146 6 -155 4 -11 19 -16 45 -16 33 0 41 4 49 25
17 46 75 46 100 0 11 -21 21 -25 58 -25 48 0 48 -1 21 66 -12 29 -9 36 49 132
34 56 62 104 62 107 0 3 -25 5 -57 3 l-56 -3 -46 -82 c-45 -80 -47 -82 -83
-83 l-38 0 0 85 0 85 -55 0 -55 0 0 -139z"/>
<path d="M6462 468 l3 -153 48 -3 c40 -3 47 0 47 15 0 35 21 43 112 43 l88 0
0 40 0 40 -96 0 -95 0 3 43 3 42 123 3 122 3 0 39 0 40 -180 0 -181 0 3 -152z"/>
<path d="M6960 580 l0 -39 68 -3 67 -3 2 -50 c2 -27 5 -78 9 -112 l6 -63 43 0
43 0 7 98 c3 53 7 104 8 112 2 11 19 16 70 18 l67 3 0 39 0 40 -195 0 -195 0
0 -40z"/>
<path d="M7520 497 c0 -69 3 -139 6 -156 l7 -31 159 0 c95 0 167 4 180 11 31
17 48 71 48 158 0 70 -3 83 -24 108 l-24 28 -176 3 -176 3 0 -124z m279 29 c7
-9 11 -40 9 -78 l-3 -63 -90 0 -90 0 2 65 c2 36 5 71 8 78 7 18 149 17 164 -2z"/>
<path d="M8100 557 c0 -35 3 -105 6 -155 l7 -92 42 0 42 0 7 53 c3 28 6 98 6
155 l0 102 -55 0 -55 0 0 -63z"/>
<path d="M8741 602 c-15 -27 -91 -260 -91 -277 0 -13 24 -15 165 -15 91 0 165
1 165 3 0 12 -45 155 -71 223 l-32 84 -63 0 c-51 0 -65 -4 -73 -18z m109 -191
c16 -40 27 -77 24 -82 -3 -5 -32 -9 -66 -9 l-60 0 5 28 c8 37 56 147 62 140 2
-2 18 -37 35 -77z"/>
<path d="M9214 586 c-32 -32 -34 -38 -34 -102 0 -38 3 -93 6 -121 l7 -53 42 0
42 0 7 61 c3 34 6 81 6 103 0 23 5 47 12 54 8 8 50 12 125 12 l113 0 0 40 0
40 -146 0 -146 0 -34 -34z"/>
<path d="M9711 518 c0 -57 4 -125 7 -153 l7 -50 43 -3 c35 -3 42 0 42 15 0 35
21 43 112 43 85 0 88 1 94 25 12 50 3 55 -101 55 l-95 0 0 29 c0 60 1 61 131
61 l119 0 0 40 0 40 -180 0 -180 0 1 -102z"/>
<path d="M1360 395 c0 -21 5 -25 29 -25 45 0 61 -10 61 -36 0 -22 4 -24 44
-24 41 0 44 2 50 31 16 80 17 79 -89 79 -95 0 -95 0 -95 -25z"/>
</g>
</svg>
